{"asset":{"version":"2.0","generator":"Blockbench 4.10.3 glTF exporter"},"scenes":[{"nodes":[4],"name":"blockbench_export"}],"scene":0,"nodes":[{"rotation":[0.7071067811865475,0,0,0.7071067811865476],"translation":[-1.850371707708594e-17,0.2747966738406962,0.004413000665195755],"name":"plane","mesh":0},{"rotation":[0.7071067811865475,0,0,0.7071067811865476],"translation":[-1.850371707708594e-17,0.4622966738406962,0.020038000665195753],"name":"plane","mesh":1},{"rotation":[0.7071067811865475,0,0,0.7071067811865476],"translation":[-1.850371707708594e-17,-0.10020332615930377,0.004413000665195755],"name":"plane","mesh":2},{"rotation":[-0.08418598282936916,0.2578341604962999,0.02255756611314987,0.9622501868990582],"translation":[1.850371707708594e-17,0.3267658261593038,-0.004413000665195755],"name":"bone","children":[0,1,2]},{"children":[3]}],"bufferViews":[{"buffer":0,"byteOffset":0,"byteLength":480,"target":34962,"byteStride":12},{"buffer":0,"byteOffset":480,"byteLength":480,"target":34962,"byteStride":12},{"buffer":0,"byteOffset":960,"byteLength":320,"target":34962,"byteStride":8},{"buffer":0,"byteOffset":1280,"byteLength":120,"target":34963},{"buffer":0,"byteOffset":1400,"byteLength":7152,"target":34962,"byteStride":12},{"buffer":0,"byteOffset":8552,"byteLength":7152,"target":34962,"byteStride":12},{"buffer":0,"byteOffset":15704,"byteLength":4768,"target":34962,"byteStride":8},{"buffer":0,"byteOffset":20472,"byteLength":1788,"target":34963},{"buffer":0,"byteOffset":22260,"byteLength":1440,"target":34962,"byteStride":12},{"buffer":0,"byteOffset":23700,"byteLength":1440,"target":34962,"byteStride":12},{"buffer":0,"byteOffset":25140,"byteLength":960,"target":34962,"byteStride":8},{"buffer":0,"byteOffset":26100,"byteLength":360,"target":34963}],"buffers":[{"byteLength":26460,"uri":"data:application/octet-stream;base64,"}],"accessors":[{"bufferView":0,"componentType":5126,"count":40,"max":[0.0546875,0.04374999925494194,0.16718749701976776],"min":[-0.0546875,-0.012500000186264515,0.02421874925494194],"type":"VEC3"},{"bufferView":1,"componentType":5126,"count":40,"max":[1,1,1],"min":[-1,-1,-1],"type":"VEC3"},{"bufferView":2,"componentType":5126,"count":40,"max":[0.6937500238418579,0.625],"min":[0,0.01718747615814209],"type":"VEC2"},{"bufferView":3,"componentType":5123,"count":60,"max":[39],"min":[0],"type":"SCALAR"},{"bufferView":4,"componentType":5126,"count":596,"max":[0.0234375,0.053786635398864746,1.0790762901306152],"min":[-0.0234375,-0.16306661069393158,0.06313125044107437],"type":"VEC3"},{"bufferView":5,"componentType":5126,"count":596,"max":[1,0.9999984502792358,1],"min":[-1,-1,-0.9812332987785339],"type":"VEC3"},{"bufferView":6,"componentType":5126,"count":596,"max":[0.6055484414100647,0.484375],"min":[0,0],"type":"VEC2"},{"bufferView":7,"componentType":5123,"count":894,"max":[595],"min":[0],"type":"SCALAR"},{"bufferView":8,"componentType":5126,"count":120,"max":[0.4453125,0.03125,0.265625],"min":[-0.4453125,0,-0.265625],"type":"VEC3"},{"bufferView":9,"componentType":5126,"count":120,"max":[1,1,1],"min":[-1,-1,-1],"type":"VEC3"},{"bufferView":10,"componentType":5126,"count":120,"max":[0.9057687520980835,0.546875],"min":[0.00390625,0],"type":"VEC2"},{"bufferView":11,"componentType":5123,"count":180,"max":[119],"min":[0],"type":"SCALAR"}],"materials":[{"pbrMetallicRoughness":{"metallicFactor":0,"roughnessFactor":1,"baseColorTexture":{"index":0}},"alphaMode":"MASK","alphaCutoff":0.05,"doubleSided":true},{"pbrMetallicRoughness":{"metallicFactor":0,"roughnessFactor":1,"baseColorTexture":{"index":1}},"alphaMode":"MASK","alphaCutoff":0.05,"doubleSided":true},{"pbrMetallicRoughness":{"metallicFactor":0,"roughnessFactor":1,"baseColorTexture":{"index":2}},"alphaMode":"MASK","alphaCutoff":0.05,"doubleSided":true}],"textures":[{"sampler":0,"source":0,"name":"texture"},{"sampler":1,"source":1,"name":"texture"},{"sampler":2,"source":2,"name":"texture"}],"samplers":[{"magFilter":9728,"minFilter":9728,"wrapS":33071,"wrapT":33071},{"magFilter":9728,"minFilter":9728,"wrapS":33071,"wrapT":33071},{"magFilter":9728,"minFilter":9728,"wrapS":33071,"wrapT":33071}],"images":[{"mimeType":"image/png","uri":"data:image/png;base64,"},{"mimeType":"image/png","uri":"data:image/png;base64,"},{"mimeType":"image/png","uri":"data:image/png;base64,"}],"meshes":[{"primitives":[{"mode":4,"attributes":{"POSITION":0,"NORMAL":1,"TEXCOORD_0":2},"indices":3,"material":0}]},{"primitives":[{"mode":4,"attributes":{"POSITION":4,"NORMAL":5,"TEXCOORD_0":6},"indices":7,"material":1}]},{"primitives":[{"mode":4,"attributes":{"POSITION":8,"NORMAL":9,"TEXCOORD_0":10},"indices":11,"material":2}]}]}