{"asset":{"version":"2.0","generator":"Blockbench 4.10.3 glTF exporter"},"scenes":[{"nodes":[8],"name":"blockbench_export"}],"scene":0,"nodes":[{"rotation":[0.7071067811865475,0,0,0.7071067811865476],"translation":[-0.0007811949824130113,0.010965020493470368,-0.3940313822118835],"name":"sphere","mesh":0},{"translation":[-0.0015624449824130113,0.0031525204934704787,-0.16590638221188345],"name":"plane","mesh":1},{"translation":[0.000781305017586989,0.0031525204934704787,0.12315611778811655],"name":"plane","mesh":2},{"translation":[0.001562555017586988,0.0031525204934704787,-0.022156382211883527],"name":"plane","mesh":3},{"translation":[-0.0007811949824130113,-0.03590997950652958,-0.026843882211883496],"name":"cylinder","mesh":4},{"rotation":[0,-0.6755902076156601,0,0.7372773368101241],"translation":[0.001562555017586989,0.012527520493470501,-0.022156382211883527],"name":"plane","mesh":5},{"rotation":[0,-0.3007057995042731,0,0.9537169507482269],"translation":[-0.0007812298295706478,-0.6843474795065296,-0.026843872874615773],"name":"cylinder_selection","mesh":6},{"rotation":[0.7071067811865475,0,0,0.7071067811865476],"translation":[0.0007811949824130113,0.21846861778811644,0.0015349795065295047],"name":"bone","children":[0,1,2,3,4,5,6]},{"children":[7]}],"bufferViews":[{"buffer":0,"byteOffset":0,"byteLength":5784,"target":34962,"byteStride":12},{"buffer":0,"byteOffset":5784,"byteLength":5784,"target":34962,"byteStride":12},{"buffer":0,"byteOffset":11568,"byteLength":3856,"target":34962,"byteStride":8},{"buffer":0,"byteOffset":15424,"byteLength":1380,"target":34963},{"buffer":0,"byteOffset":16804,"byteLength":48,"target":34962,"byteStride":12},{"buffer":0,"byteOffset":16852,"byteLength":48,"target":34962,"byteStride":12},{"buffer":0,"byteOffset":16900,"byteLength":32,"target":34962,"byteStride":8},{"buffer":0,"byteOffset":16932,"byteLength":12,"target":34963},{"buffer":0,"byteOffset":16944,"byteLength":48,"target":34962,"byteStride":12},{"buffer":0,"byteOffset":16992,"byteLength":48,"target":34962,"byteStride":12},{"buffer":0,"byteOffset":17040,"byteLength":32,"target":34962,"byteStride":8},{"buffer":0,"byteOffset":17072,"byteLength":12,"target":34963},{"buffer":0,"byteOffset":17084,"byteLength":48,"target":34962,"byteStride":12},{"buffer":0,"byteOffset":17132,"byteLength":48,"target":34962,"byteStride":12},{"buffer":0,"byteOffset":17180,"byteLength":32,"target":34962,"byteStride":8},{"buffer":0,"byteOffset":17212,"byteLength":12,"target":34963},{"buffer":0,"byteOffset":17224,"byteLength":3744,"target":34962,"byteStride":12},{"buffer":0,"byteOffset":20968,"byteLength":3744,"target":34962,"byteStride":12},{"buffer":0,"byteOffset":24712,"byteLength":2496,"target":34962,"byteStride":8},{"buffer":0,"byteOffset":27208,"byteLength":864,"target":34963},{"buffer":0,"byteOffset":28072,"byteLength":144,"target":34962,"byteStride":12},{"buffer":0,"byteOffset":28216,"byteLength":144,"target":34962,"byteStride":12},{"buffer":0,"byteOffset":28360,"byteLength":96,"target":34962,"byteStride":8},{"buffer":0,"byteOffset":28456,"byteLength":24,"target":34963},{"buffer":0,"byteOffset":28480,"byteLength":1008,"target":34962,"byteStride":12},{"buffer":0,"byteOffset":29488,"byteLength":1008,"target":34962,"byteStride":12},{"buffer":0,"byteOffset":30496,"byteLength":672,"target":34962,"byteStride":8},{"buffer":0,"byteOffset":31168,"byteLength":216,"target":34963}],"buffers":[{"byteLength":31384,"uri":"data:application/octet-stream;base64,"}],"accessors":[{"bufferView":0,"componentType":5126,"count":482,"max":[0.03832336515188217,0.12192744016647339,0.038515206426382065],"min":[-0.03832295536994934,0.06801482290029526,-0.026494458317756653],"type":"VEC3"},{"bufferView":1,"componentType":5126,"count":482,"max":[0.9950575232505798,0.9929700493812561,0.9013832211494446],"min":[-0.9947839975357056,-0.9901738166809082,-0.9892375469207764],"type":"VEC3"},{"bufferView":2,"componentType":5126,"count":482,"max":[0.6875,0.75],"min":[0,0],"type":"VEC2"},{"bufferView":3,"componentType":5123,"count":690,"max":[481],"min":[0],"type":"SCALAR"},{"bufferView":4,"componentType":5126,"count":4,"max":[0.0390625,0,0.0390625],"min":[-0.0390625,0,-0.0390625],"type":"VEC3"},{"bufferView":5,"componentType":5126,"count":4,"max":[0,1,0],"min":[0,1,0],"type":"VEC3"},{"bufferView":6,"componentType":5126,"count":4,"max":[1,1],"min":[0,0],"type":"VEC2"},{"bufferView":7,"componentType":5123,"count":6,"max":[3],"min":[0],"type":"SCALAR"},{"bufferView":8,"componentType":5126,"count":4,"max":[0.0390625,0,0.0390625],"min":[-0.0390625,0,-0.0390625],"type":"VEC3"},{"bufferView":9,"componentType":5126,"count":4,"max":[0,1,0],"min":[0,1,0],"type":"VEC3"},{"bufferView":10,"componentType":5126,"count":4,"max":[1,1],"min":[0,0],"type":"VEC2"},{"bufferView":11,"componentType":5123,"count":6,"max":[3],"min":[0],"type":"SCALAR"},{"bufferView":12,"componentType":5126,"count":4,"max":[0.1328125,0,0.1328125],"min":[-0.1328125,0,-0.1328125],"type":"VEC3"},{"bufferView":13,"componentType":5126,"count":4,"max":[0,1,0],"min":[0,1,0],"type":"VEC3"},{"bufferView":14,"componentType":5126,"count":4,"max":[0.875339686870575,0.8394021987915039],"min":[0.15625,0.12812501192092896],"type":"VEC2"},{"bufferView":15,"componentType":5123,"count":6,"max":[3],"min":[0],"type":"SCALAR"},{"bufferView":16,"componentType":5126,"count":312,"max":[0.25,0.0859375,0.25],"min":[-0.25,-0.03125,-0.25],"type":"VEC3"},{"bufferView":17,"componentType":5126,"count":312,"max":[1,1,1],"min":[-1,-0.9976303577423096,-1],"type":"VEC3"},{"bufferView":18,"componentType":5126,"count":312,"max":[0.6082937717437744,0.4951515793800354],"min":[0.0010812500258907676,0],"type":"VEC2"},{"bufferView":19,"componentType":5123,"count":432,"max":[311],"min":[0],"type":"SCALAR"},{"bufferView":20,"componentType":5126,"count":12,"max":[0.11015625298023224,0.03125,0.11015625298023224],"min":[-0.11015625298023224,-0.0078125,-0.11015625298023224],"type":"VEC3"},{"bufferView":21,"componentType":5126,"count":12,"max":[0.554530918598175,0.7850036025047302,0.554530918598175],"min":[-0.554530918598175,0.7850036025047302,-0.554530918598175],"type":"VEC3"},{"bufferView":22,"componentType":5126,"count":12,"max":[0.71875,0.46875],"min":[0.15625,0.09375],"type":"VEC2"},{"bufferView":23,"componentType":5123,"count":12,"max":[11],"min":[0],"type":"SCALAR"},{"bufferView":24,"componentType":5126,"count":84,"max":[0.22544412314891815,0.7632812261581421,0.22544407844543457],"min":[-0.22544412314891815,0.729687511920929,-0.22544364631175995],"type":"VEC3"},{"bufferView":25,"componentType":5126,"count":84,"max":[0.40912482142448425,-0.9079592227935791,0.40912559628486633],"min":[-0.40912482142448425,-0.9946184754371643,-0.40912482142448425],"type":"VEC3"},{"bufferView":26,"componentType":5126,"count":84,"max":[0.8997605443000793,0.9921875],"min":[0.00961447972804308,0.10207045078277588],"type":"VEC2"},{"bufferView":27,"componentType":5123,"count":108,"max":[83],"min":[0],"type":"SCALAR"}],"materials":[{"pbrMetallicRoughness":{"metallicFactor":0,"roughnessFactor":1,"baseColorTexture":{"index":0}},"alphaMode":"MASK","alphaCutoff":0.05,"doubleSided":true},{"pbrMetallicRoughness":{"metallicFactor":0,"roughnessFactor":1,"baseColorTexture":{"index":1}},"alphaMode":"MASK","alphaCutoff":0.05,"doubleSided":true},{"pbrMetallicRoughness":{"metallicFactor":0,"roughnessFactor":1,"baseColorTexture":{"index":2}},"alphaMode":"MASK","alphaCutoff":0.05,"doubleSided":true},{"pbrMetallicRoughness":{"metallicFactor":0,"roughnessFactor":1,"baseColorTexture":{"index":3}},"alphaMode":"MASK","alphaCutoff":0.05,"doubleSided":true},{"pbrMetallicRoughness":{"metallicFactor":0,"roughnessFactor":1,"baseColorTexture":{"index":4}},"alphaMode":"MASK","alphaCutoff":0.05,"doubleSided":true},{"pbrMetallicRoughness":{"metallicFactor":0,"roughnessFactor":1,"baseColorTexture":{"index":5}},"alphaMode":"MASK","alphaCutoff":0.05,"doubleSided":true},{"pbrMetallicRoughness":{"metallicFactor":0,"roughnessFactor":1,"baseColorTexture":{"index":6}},"alphaMode":"MASK","alphaCutoff":0.05,"doubleSided":true}],"textures":[{"sampler":0,"source":0,"name":"texture"},{"sampler":1,"source":1,"name":"texture"},{"sampler":2,"source":2,"name":"texture"},{"sampler":3,"source":3,"name":"texture"},{"sampler":4,"source":4,"name":"texture"},{"sampler":5,"source":5,"name":"texture"},{"sampler":6,"source":6,"name":"texture"}],"samplers":[{"magFilter":9728,"minFilter":9728,"wrapS":33071,"wrapT":33071},{"magFilter":9728,"minFilter":9728,"wrapS":33071,"wrapT":33071},{"magFilter":9728,"minFilter":9728,"wrapS":33071,"wrapT":33071},{"magFilter":9728,"minFilter":9728,"wrapS":33071,"wrapT":33071},{"magFilter":9728,"minFilter":9728,"wrapS":33071,"wrapT":33071},{"magFilter":9728,"minFilter":9728,"wrapS":33071,"wrapT":33071},{"magFilter":9728,"minFilter":9728,"wrapS":33071,"wrapT":33071}],"images":[{"mimeType":"image/png","uri":"data:image/png;base64,"},{"mimeType":"image/png","uri":"data:image/png;base64,"},{"mimeType":"image/png","uri":"data:image/png;base64,"},{"mimeType":"image/png","uri":"data:image/png;base64,"},{"mimeType":"image/png","uri":"data:image/png;base64,"},{"mimeType":"image/png","uri":"data:image/png;base64,"},{"mimeType":"image/png","uri":"data:image/png;base64,"}],"meshes":[{"primitives":[{"mode":4,"attributes":{"POSITION":0,"NORMAL":1,"TEXCOORD_0":2},"indices":3,"material":0}]},{"primitives":[{"mode":4,"attributes":{"POSITION":4,"NORMAL":5,"TEXCOORD_0":6},"indices":7,"material":1}]},{"primitives":[{"mode":4,"attributes":{"POSITION":8,"NORMAL":9,"TEXCOORD_0":10},"indices":11,"material":2}]},{"primitives":[{"mode":4,"attributes":{"POSITION":12,"NORMAL":13,"TEXCOORD_0":14},"indices":15,"material":3}]},{"primitives":[{"mode":4,"attributes":{"POSITION":16,"NORMAL":17,"TEXCOORD_0":18},"indices":19,"material":4}]},{"primitives":[{"mode":4,"attributes":{"POSITION":20,"NORMAL":21,"TEXCOORD_0":22},"indices":23,"material":5}]},{"primitives":[{"mode":4,"attributes":{"POSITION":24,"NORMAL":25,"TEXCOORD_0":26},"indices":27,"material":6}]}]}