{"asset":{"version":"2.0","generator":"Blockbench 4.10.3 glTF exporter"},"scenes":[{"nodes":[6],"name":"blockbench_export"}],"scene":0,"nodes":[{"translation":[0,0.19999999999999996,-0.09375],"name":"sphere","mesh":0},{"translation":[0,-0.46874999999999944,-0.09375],"name":"sphere","mesh":1},{"rotation":[0,0,0.7933533402912352,0.6087614290087207],"translation":[-0.19062500000000004,-0.20625,-0.0703125],"name":"cylinder","mesh":2},{"rotation":[0.06279026469378293,0.018301693167012467,0.2792298786318858,0.957994313952921],"translation":[-0.21875,0.4062500000000004,0],"name":"cylinder","mesh":3},{"rotation":[0.06279026469378293,-0.018301693167012467,-0.2792298786318858,0.957994313952921],"translation":[0.21875,0.4062500000000004,0],"name":"cylinder","mesh":4},{"translation":[0,-0.10624999999999996,0.09375],"name":"bone","children":[0,1,2,3,4]},{"children":[5]}],"bufferViews":[{"buffer":0,"byteOffset":0,"byteLength":4896,"target":34962,"byteStride":12},{"buffer":0,"byteOffset":4896,"byteLength":4896,"target":34962,"byteStride":12},{"buffer":0,"byteOffset":9792,"byteLength":3264,"target":34962,"byteStride":8},{"buffer":0,"byteOffset":13056,"byteLength":1152,"target":34963},{"buffer":0,"byteOffset":14208,"byteLength":4320,"target":34962,"byteStride":12},{"buffer":0,"byteOffset":18528,"byteLength":4320,"target":34962,"byteStride":12},{"buffer":0,"byteOffset":22848,"byteLength":2880,"target":34962,"byteStride":8},{"buffer":0,"byteOffset":25728,"byteLength":1008,"target":34963},{"buffer":0,"byteOffset":26736,"byteLength":6000,"target":34962,"byteStride":12},{"buffer":0,"byteOffset":32736,"byteLength":6000,"target":34962,"byteStride":12},{"buffer":0,"byteOffset":38736,"byteLength":4000,"target":34962,"byteStride":8},{"buffer":0,"byteOffset":42736,"byteLength":1500,"target":34963},{"buffer":0,"byteOffset":44236,"byteLength":3216,"target":34962,"byteStride":12},{"buffer":0,"byteOffset":47452,"byteLength":3216,"target":34962,"byteStride":12},{"buffer":0,"byteOffset":50668,"byteLength":2144,"target":34962,"byteStride":8},{"buffer":0,"byteOffset":52812,"byteLength":804,"target":34963},{"buffer":0,"byteOffset":53616,"byteLength":3120,"target":34962,"byteStride":12},{"buffer":0,"byteOffset":56736,"byteLength":3120,"target":34962,"byteStride":12},{"buffer":0,"byteOffset":59856,"byteLength":2080,"target":34962,"byteStride":8},{"buffer":0,"byteOffset":61936,"byteLength":780,"target":34963}],"buffers":[{"byteLength":62716,"uri":"data:application/octet-stream;base64,"}],"accessors":[{"bufferView":0,"componentType":5126,"count":408,"max":[0.33906251192092896,0.28125,0.27803483605384827],"min":[-0.33906251192092896,-0.30000001192092896,-0.27803483605384827],"type":"VEC3"},{"bufferView":1,"componentType":5126,"count":408,"max":[0.9997643232345581,0.994217038154602,0.9999306201934814],"min":[-0.9997643232345581,-0.9857149720191956,-0.9999306201934814],"type":"VEC3"},{"bufferView":2,"componentType":5126,"count":408,"max":[0.7956288456916809,0.765625],"min":[0.004115840885788202,0],"type":"VEC2"},{"bufferView":3,"componentType":5123,"count":576,"max":[407],"min":[0],"type":"SCALAR"},{"bufferView":4,"componentType":5126,"count":360,"max":[0.19062499701976776,0.44062501192092896,0.16562500596046448],"min":[-0.19062499701976776,0.0234375,-0.16562500596046448],"type":"VEC3"},{"bufferView":5,"componentType":5126,"count":360,"max":[0.9972925186157227,0.983487069606781,0.9979540705680847],"min":[-0.9972925186157227,-0.9988431334495544,-0.9979540705680847],"type":"VEC3"},{"bufferView":6,"componentType":5126,"count":360,"max":[0.6192874908447266,0.59375],"min":[0.004346576519310474,0],"type":"VEC2"},{"bufferView":7,"componentType":5123,"count":504,"max":[359],"min":[0],"type":"SCALAR"},{"bufferView":8,"componentType":5126,"count":500,"max":[0.210752934217453,0.19390907883644104,0.046875],"min":[-0.033353690057992935,-0.053757742047309875,-0.046875],"type":"VEC3"},{"bufferView":9,"componentType":5126,"count":500,"max":[0.9936513304710388,0.9810701608657837,1],"min":[-0.9896402955055237,-0.9815258979797363,-1],"type":"VEC3"},{"bufferView":10,"componentType":5126,"count":500,"max":[0.817187488079071,0.9141396880149841],"min":[0.03125,0.004687488079071045],"type":"VEC2"},{"bufferView":11,"componentType":5123,"count":750,"max":[499],"min":[0],"type":"SCALAR"},{"bufferView":12,"componentType":5126,"count":268,"max":[0.08785146474838257,0.14374999701976776,0.02500000037252903],"min":[-0.09027353674173355,-0.023602932691574097,-0.02500000037252903],"type":"VEC3"},{"bufferView":13,"componentType":5126,"count":268,"max":[0.9983556866645813,1,1],"min":[-0.995219349861145,-0.256515234708786,-1],"type":"VEC3"},{"bufferView":14,"componentType":5126,"count":268,"max":[0.5907624959945679,0.625],"min":[0,0],"type":"VEC2"},{"bufferView":15,"componentType":5123,"count":402,"max":[267],"min":[0],"type":"SCALAR"},{"bufferView":16,"componentType":5126,"count":260,"max":[0.09027353674173355,0.14374999701976776,0.02500000037252903],"min":[-0.08785146474838257,-0.023602932691574097,-0.02500000037252903],"type":"VEC3"},{"bufferView":17,"componentType":5126,"count":260,"max":[0.995219349861145,1,1],"min":[-0.9983556866645813,-0.256515234708786,-1],"type":"VEC3"},{"bufferView":18,"componentType":5126,"count":260,"max":[0.5625,0.6267125010490417],"min":[0,0],"type":"VEC2"},{"bufferView":19,"componentType":5123,"count":390,"max":[259],"min":[0],"type":"SCALAR"}],"materials":[{"pbrMetallicRoughness":{"metallicFactor":0,"roughnessFactor":1,"baseColorTexture":{"index":0}},"alphaMode":"MASK","alphaCutoff":0.05,"doubleSided":true},{"pbrMetallicRoughness":{"metallicFactor":0,"roughnessFactor":1,"baseColorTexture":{"index":1}},"alphaMode":"MASK","alphaCutoff":0.05,"doubleSided":true},{"pbrMetallicRoughness":{"metallicFactor":0,"roughnessFactor":1,"baseColorTexture":{"index":2}},"alphaMode":"MASK","alphaCutoff":0.05,"doubleSided":true},{"pbrMetallicRoughness":{"metallicFactor":0,"roughnessFactor":1,"baseColorTexture":{"index":3}},"alphaMode":"MASK","alphaCutoff":0.05,"doubleSided":true},{"pbrMetallicRoughness":{"metallicFactor":0,"roughnessFactor":1,"baseColorTexture":{"index":4}},"alphaMode":"MASK","alphaCutoff":0.05,"doubleSided":true}],"textures":[{"sampler":0,"source":0,"name":"texture"},{"sampler":1,"source":1,"name":"texture"},{"sampler":2,"source":2,"name":"texture"},{"sampler":3,"source":3,"name":"texture"},{"sampler":4,"source":4,"name":"texture"}],"samplers":[{"magFilter":9728,"minFilter":9728,"wrapS":33071,"wrapT":33071},{"magFilter":9728,"minFilter":9728,"wrapS":33071,"wrapT":33071},{"magFilter":9728,"minFilter":9728,"wrapS":33071,"wrapT":33071},{"magFilter":9728,"minFilter":9728,"wrapS":33071,"wrapT":33071},{"magFilter":9728,"minFilter":9728,"wrapS":33071,"wrapT":33071}],"images":[{"mimeType":"image/png","uri":"data:image/png;base64,"},{"mimeType":"image/png","uri":"data:image/png;base64,"},{"mimeType":"image/png","uri":"data:image/png;base64,"},{"mimeType":"image/png","uri":"data:image/png;base64,"},{"mimeType":"image/png","uri":"data:image/png;base64,"}],"meshes":[{"primitives":[{"mode":4,"attributes":{"POSITION":0,"NORMAL":1,"TEXCOORD_0":2},"indices":3,"material":0}]},{"primitives":[{"mode":4,"attributes":{"POSITION":4,"NORMAL":5,"TEXCOORD_0":6},"indices":7,"material":1}]},{"primitives":[{"mode":4,"attributes":{"POSITION":8,"NORMAL":9,"TEXCOORD_0":10},"indices":11,"material":2}]},{"primitives":[{"mode":4,"attributes":{"POSITION":12,"NORMAL":13,"TEXCOORD_0":14},"indices":15,"material":3}]},{"primitives":[{"mode":4,"attributes":{"POSITION":16,"NORMAL":17,"TEXCOORD_0":18},"indices":19,"material":4}]}]}