{"asset":{"version":"2.0","generator":"Blockbench 4.10.3 glTF exporter"},"scenes":[{"nodes":[3],"name":"blockbench_export"}],"scene":0,"nodes":[{"rotation":[0,0,0.7071067811865475,0.7071067811865476],"name":"sphere","mesh":0},{"rotation":[0,0,0.7071067811865475,0.7071067811865476],"translation":[-0.06874999999999998,0,0],"name":"circle","mesh":1},{"rotation":[0,0.7071067811865475,0,0.7071067811865476],"name":"bone","children":[0,1]},{"children":[2]}],"bufferViews":[{"buffer":0,"byteOffset":0,"byteLength":480,"target":34962,"byteStride":12},{"buffer":0,"byteOffset":480,"byteLength":480,"target":34962,"byteStride":12},{"buffer":0,"byteOffset":960,"byteLength":320,"target":34962,"byteStride":8},{"buffer":0,"byteOffset":1280,"byteLength":96,"target":34963},{"buffer":0,"byteOffset":1376,"byteLength":3240,"target":34962,"byteStride":12},{"buffer":0,"byteOffset":4616,"byteLength":3240,"target":34962,"byteStride":12},{"buffer":0,"byteOffset":7856,"byteLength":2160,"target":34962,"byteStride":8},{"buffer":0,"byteOffset":10016,"byteLength":780,"target":34963}],"buffers":[{"byteLength":10796,"uri":"data:application/octet-stream;base64,"}],"accessors":[{"bufferView":0,"componentType":5126,"count":40,"max":[0.625,0.13750000298023224,1],"min":[-0.625,-0.16875000298023224,-1],"type":"VEC3"},{"bufferView":1,"componentType":5126,"count":40,"max":[0.3532719314098358,0.999079167842865,0.20076793432235718],"min":[-0.35367077589035034,-0.98605877161026,-0.20126226544380188],"type":"VEC3"},{"bufferView":2,"componentType":5126,"count":40,"max":[0.703125,0.78125],"min":[0.014966675080358982,0.015625],"type":"VEC2"},{"bufferView":3,"componentType":5123,"count":48,"max":[39],"min":[0],"type":"SCALAR"},{"bufferView":4,"componentType":5126,"count":270,"max":[0.28198111057281494,0.15000000596046448,0.2562499940395355],"min":[-0.28198111057281494,0.0625,-0.2562499940395355],"type":"VEC3"},{"bufferView":5,"componentType":5126,"count":270,"max":[0.9467592835426331,1,1],"min":[-0.9467592835426331,-0.8368995189666748,-1],"type":"VEC3"},{"bufferView":6,"componentType":5126,"count":270,"max":[0.859375,0.96875],"min":[0.0015799897955730557,0.006154060363769531],"type":"VEC2"},{"bufferView":7,"componentType":5123,"count":390,"max":[269],"min":[0],"type":"SCALAR"}],"materials":[{"pbrMetallicRoughness":{"metallicFactor":0,"roughnessFactor":1,"baseColorTexture":{"index":0}},"alphaMode":"MASK","alphaCutoff":0.05,"doubleSided":true},{"pbrMetallicRoughness":{"metallicFactor":0,"roughnessFactor":1,"baseColorTexture":{"index":1}},"alphaMode":"MASK","alphaCutoff":0.05,"doubleSided":true}],"textures":[{"sampler":0,"source":0,"name":"texture"},{"sampler":1,"source":1,"name":"texture"}],"samplers":[{"magFilter":9728,"minFilter":9728,"wrapS":33071,"wrapT":33071},{"magFilter":9728,"minFilter":9728,"wrapS":33071,"wrapT":33071}],"images":[{"mimeType":"image/png","uri":"data:image/png;base64,"},{"mimeType":"image/png","uri":"data:image/png;base64,"}],"meshes":[{"primitives":[{"mode":4,"attributes":{"POSITION":0,"NORMAL":1,"TEXCOORD_0":2},"indices":3,"material":0}]},{"primitives":[{"mode":4,"attributes":{"POSITION":4,"NORMAL":5,"TEXCOORD_0":6},"indices":7,"material":1}]}]}