{"asset":{"version":"2.0","generator":"Blockbench 4.10.3 glTF exporter"},"scenes":[{"nodes":[7],"name":"blockbench_export"}],"scene":0,"nodes":[{"rotation":[0.7071067811865475,0,0,0.7071067811865476],"translation":[-0.5625000000000001,0.15625,0],"name":"circle","mesh":0},{"rotation":[0.7071067811865475,0,0,0.7071067811865476],"translation":[-0.5625000000000001,-0.0625,0],"name":"plane","mesh":1},{"rotation":[0.7071067811865475,0,0,0.7071067811865476],"translation":[-0.3125000000000001,-0.0625,0],"name":"plane","mesh":2},{"rotation":[0.7071067811865475,0,0,0.7071067811865476],"name":"plane","mesh":3},{"translation":[0.296875,0.084375,0.153125],"name":"bone","children":[0,1,2,3]},{"translation":[-0.009375000000000133,-0.24687499999999987,-0.034374999999999975],"name":"cuboid","mesh":4},{"translation":[0.009375000000000133,-8.326672684688674e-17,0.034374999999999975],"name":"bone2","children":[4,5]},{"children":[6]}],"bufferViews":[{"buffer":0,"byteOffset":0,"byteLength":432,"target":34962,"byteStride":12},{"buffer":0,"byteOffset":432,"byteLength":432,"target":34962,"byteStride":12},{"buffer":0,"byteOffset":864,"byteLength":288,"target":34962,"byteStride":8},{"buffer":0,"byteOffset":1152,"byteLength":72,"target":34963},{"buffer":0,"byteOffset":1224,"byteLength":48,"target":34962,"byteStride":12},{"buffer":0,"byteOffset":1272,"byteLength":48,"target":34962,"byteStride":12},{"buffer":0,"byteOffset":1320,"byteLength":32,"target":34962,"byteStride":8},{"buffer":0,"byteOffset":1352,"byteLength":12,"target":34963},{"buffer":0,"byteOffset":1364,"byteLength":48,"target":34962,"byteStride":12},{"buffer":0,"byteOffset":1412,"byteLength":48,"target":34962,"byteStride":12},{"buffer":0,"byteOffset":1460,"byteLength":32,"target":34962,"byteStride":8},{"buffer":0,"byteOffset":1492,"byteLength":12,"target":34963},{"buffer":0,"byteOffset":1504,"byteLength":396,"target":34962,"byteStride":12},{"buffer":0,"byteOffset":1900,"byteLength":396,"target":34962,"byteStride":12},{"buffer":0,"byteOffset":2296,"byteLength":264,"target":34962,"byteStride":8},{"buffer":0,"byteOffset":2560,"byteLength":92,"target":34963},{"buffer":0,"byteOffset":2652,"byteLength":1440,"target":34962,"byteStride":12},{"buffer":0,"byteOffset":4092,"byteLength":1440,"target":34962,"byteStride":12},{"buffer":0,"byteOffset":5532,"byteLength":960,"target":34962,"byteStride":8},{"buffer":0,"byteOffset":6492,"byteLength":360,"target":34963}],"buffers":[{"byteLength":6852,"uri":"data:application/octet-stream;base64,"}],"accessors":[{"bufferView":0,"componentType":5126,"count":36,"max":[0.078125,0,0.078125],"min":[-0.078125,0,-0.078125],"type":"VEC3"},{"bufferView":1,"componentType":5126,"count":36,"max":[0,1,0],"min":[0,1,0],"type":"VEC3"},{"bufferView":2,"componentType":5126,"count":36,"max":[0.171875,0.71875],"min":[0.015625,0.5625],"type":"VEC2"},{"bufferView":3,"componentType":5123,"count":36,"max":[35],"min":[0],"type":"SCALAR"},{"bufferView":4,"componentType":5126,"count":4,"max":[0.078125,0,0.34375],"min":[-0.078125,0,-0.09375],"type":"VEC3"},{"bufferView":5,"componentType":5126,"count":4,"max":[0,1,0],"min":[0,1,0],"type":"VEC3"},{"bufferView":6,"componentType":5126,"count":4,"max":[0.1875,0.4375],"min":[0,0],"type":"VEC2"},{"bufferView":7,"componentType":5123,"count":6,"max":[3],"min":[0],"type":"SCALAR"},{"bufferView":8,"componentType":5126,"count":4,"max":[0.078125,0,0.34375],"min":[-0.078125,0,-0.09375],"type":"VEC3"},{"bufferView":9,"componentType":5126,"count":4,"max":[0,1,0],"min":[0,1,0],"type":"VEC3"},{"bufferView":10,"componentType":5126,"count":4,"max":[0.5,0.9375],"min":[0.3125,0.5],"type":"VEC2"},{"bufferView":11,"componentType":5123,"count":6,"max":[3],"min":[0],"type":"SCALAR"},{"bufferView":12,"componentType":5126,"count":33,"max":[0.078125,1.9081958235744878e-17,0.40625],"min":[-0.234375,-1.3877787807814457e-17,-0.03125],"type":"VEC3"},{"bufferView":13,"componentType":5126,"count":33,"max":[9.330804435623535e-17,1,1.3991048024263177e-16],"min":[-4.7942779498642645e-16,1,-2.262606320106508e-16],"type":"VEC3"},{"bufferView":14,"componentType":5126,"count":33,"max":[0.6228841543197632,0.4375],"min":[0.2525716722011566,0],"type":"VEC2"},{"bufferView":15,"componentType":5123,"count":45,"max":[32],"min":[0],"type":"SCALAR"},{"bufferView":16,"componentType":5126,"count":120,"max":[0.5,0.75,0.109375],"min":[-0.5,-0.25,-0.109375],"type":"VEC3"},{"bufferView":17,"componentType":5126,"count":120,"max":[1,1,1],"min":[-1,-1,-1],"type":"VEC3"},{"bufferView":18,"componentType":5126,"count":120,"max":[0.5843155980110168,0.5686312913894653],"min":[0,0],"type":"VEC2"},{"bufferView":19,"componentType":5123,"count":180,"max":[119],"min":[0],"type":"SCALAR"}],"materials":[{"pbrMetallicRoughness":{"metallicFactor":0,"roughnessFactor":1,"baseColorTexture":{"index":0}},"alphaMode":"MASK","alphaCutoff":0.05,"doubleSided":true},{"pbrMetallicRoughness":{"metallicFactor":0,"roughnessFactor":1,"baseColorTexture":{"index":1}},"alphaMode":"MASK","alphaCutoff":0.05,"doubleSided":true}],"textures":[{"sampler":0,"source":0,"name":"texture"},{"sampler":1,"source":1,"name":"texture"}],"samplers":[{"magFilter":9728,"minFilter":9728,"wrapS":33071,"wrapT":33071},{"magFilter":9728,"minFilter":9728,"wrapS":33071,"wrapT":33071}],"images":[{"mimeType":"image/png","uri":"data:image/png;base64,"},{"mimeType":"image/png","uri":"data:image/png;base64,"}],"meshes":[{"primitives":[{"mode":4,"attributes":{"POSITION":0,"NORMAL":1,"TEXCOORD_0":2},"indices":3,"material":0}]},{"primitives":[{"mode":4,"attributes":{"POSITION":4,"NORMAL":5,"TEXCOORD_0":6},"indices":7,"material":0}]},{"primitives":[{"mode":4,"attributes":{"POSITION":8,"NORMAL":9,"TEXCOORD_0":10},"indices":11,"material":0}]},{"primitives":[{"mode":4,"attributes":{"POSITION":12,"NORMAL":13,"TEXCOORD_0":14},"indices":15,"material":0}]},{"primitives":[{"mode":4,"attributes":{"POSITION":16,"NORMAL":17,"TEXCOORD_0":18},"indices":19,"material":1}]}]}