{"asset":{"version":"2.0","generator":"Blockbench 4.10.3 glTF exporter"},"scenes":[{"nodes":[5],"name":"blockbench_export"}],"scene":0,"nodes":[{"rotation":[0,0.13052619222005157,0,0.9914448613738104],"translation":[-0.048437499999999994,-0.05312500000000009,-0.5328125000000001],"name":"cuboid","mesh":0},{"rotation":[0,-0.13052619222005157,0,0.9914448613738104],"translation":[-0.050000000000000065,-0.2562500000000001,-0.5328124999999999],"name":"cuboid","mesh":1},{"rotation":[0.07391278278754937,-0.11061587345725431,0.7032331579018594,0.698401141685255],"translation":[-0.09374999999999999,0,0.20937499999999987],"name":"plane","mesh":2},{"rotation":[0.20145989182682783,-0.16444009650823596,0.6827785906418092,0.6827787070542471],"translation":[0,0,0.265625],"name":"plane","mesh":3},{"translation":[0.04375000000000001,0.025000000000000088,0.04062500000000013],"name":"bone","children":[0,1,2,3]},{"children":[4]}],"bufferViews":[{"buffer":0,"byteOffset":0,"byteLength":672,"target":34962,"byteStride":12},{"buffer":0,"byteOffset":672,"byteLength":672,"target":34962,"byteStride":12},{"buffer":0,"byteOffset":1344,"byteLength":448,"target":34962,"byteStride":8},{"buffer":0,"byteOffset":1792,"byteLength":168,"target":34963},{"buffer":0,"byteOffset":1960,"byteLength":1056,"target":34962,"byteStride":12},{"buffer":0,"byteOffset":3016,"byteLength":1056,"target":34962,"byteStride":12},{"buffer":0,"byteOffset":4072,"byteLength":704,"target":34962,"byteStride":8},{"buffer":0,"byteOffset":4776,"byteLength":264,"target":34963},{"buffer":0,"byteOffset":5040,"byteLength":48,"target":34962,"byteStride":12},{"buffer":0,"byteOffset":5088,"byteLength":48,"target":34962,"byteStride":12},{"buffer":0,"byteOffset":5136,"byteLength":32,"target":34962,"byteStride":8},{"buffer":0,"byteOffset":5168,"byteLength":12,"target":34963},{"buffer":0,"byteOffset":5180,"byteLength":48,"target":34962,"byteStride":12},{"buffer":0,"byteOffset":5228,"byteLength":48,"target":34962,"byteStride":12},{"buffer":0,"byteOffset":5276,"byteLength":32,"target":34962,"byteStride":8},{"buffer":0,"byteOffset":5308,"byteLength":12,"target":34963}],"buffers":[{"byteLength":5320,"uri":"data:application/octet-stream;base64,"}],"accessors":[{"bufferView":0,"componentType":5126,"count":56,"max":[0.030414454638957977,0.859375,0.9996329545974731],"min":[-0.0008355461759492755,-0.765625,-0.00036704380181618035],"type":"VEC3"},{"bufferView":1,"componentType":5126,"count":56,"max":[1,1,1],"min":[-1,-1,-1],"type":"VEC3"},{"bufferView":2,"componentType":5126,"count":56,"max":[0.515625,0.828125],"min":[0,0],"type":"VEC2"},{"bufferView":3,"componentType":5123,"count":84,"max":[55],"min":[0],"type":"SCALAR"},{"bufferView":4,"componentType":5126,"count":88,"max":[0.0004963280516676605,1.0625,1.1254432201385498],"min":[-0.030753672122955322,-0.5625,0.0004431754059623927],"type":"VEC3"},{"bufferView":5,"componentType":5126,"count":88,"max":[1,1,1],"min":[-1,-1,-1],"type":"VEC3"},{"bufferView":6,"componentType":5126,"count":88,"max":[0.578125,0.828125],"min":[0,0],"type":"VEC2"},{"bufferView":7,"componentType":5123,"count":132,"max":[87],"min":[0],"type":"SCALAR"},{"bufferView":8,"componentType":5126,"count":4,"max":[0.626268744468689,6.279698983036042e-16,0.3846370279788971],"min":[-0.686231255531311,6.279698983036042e-16,-0.5528629422187805],"type":"VEC3"},{"bufferView":9,"componentType":5126,"count":4,"max":[0,1,0],"min":[0,1,0],"type":"VEC3"},{"bufferView":10,"componentType":5126,"count":4,"max":[0.5625,0.5625],"min":[0.09375,0],"type":"VEC2"},{"bufferView":11,"componentType":5123,"count":6,"max":[3],"min":[0],"type":"SCALAR"},{"bufferView":12,"componentType":5126,"count":4,"max":[0.43876874446868896,6.279698983036042e-16,0.2908870279788971],"min":[-0.686231255531311,6.279698983036042e-16,-0.4591129720211029],"type":"VEC3"},{"bufferView":13,"componentType":5126,"count":4,"max":[0,1,0],"min":[0,1,0],"type":"VEC3"},{"bufferView":14,"componentType":5126,"count":4,"max":[0.46875,0.46875],"min":[0.09375,0],"type":"VEC2"},{"bufferView":15,"componentType":5123,"count":6,"max":[3],"min":[0],"type":"SCALAR"}],"materials":[{"pbrMetallicRoughness":{"metallicFactor":0,"roughnessFactor":1,"baseColorTexture":{"index":0}},"alphaMode":"MASK","alphaCutoff":0.05,"doubleSided":true},{"pbrMetallicRoughness":{"metallicFactor":0,"roughnessFactor":1,"baseColorTexture":{"index":1}},"alphaMode":"MASK","alphaCutoff":0.05,"doubleSided":true},{"pbrMetallicRoughness":{"metallicFactor":0,"roughnessFactor":1,"baseColorTexture":{"index":2}},"alphaMode":"MASK","alphaCutoff":0.05,"doubleSided":true},{"pbrMetallicRoughness":{"metallicFactor":0,"roughnessFactor":1,"baseColorTexture":{"index":3}},"alphaMode":"MASK","alphaCutoff":0.05,"doubleSided":true}],"textures":[{"sampler":0,"source":0,"name":"texture"},{"sampler":1,"source":1,"name":"texture"},{"sampler":2,"source":2,"name":"texture"},{"sampler":3,"source":3,"name":"texture"}],"samplers":[{"magFilter":9728,"minFilter":9728,"wrapS":33071,"wrapT":33071},{"magFilter":9728,"minFilter":9728,"wrapS":33071,"wrapT":33071},{"magFilter":9728,"minFilter":9728,"wrapS":33071,"wrapT":33071},{"magFilter":9728,"minFilter":9728,"wrapS":33071,"wrapT":33071}],"images":[{"mimeType":"image/png","uri":"data:image/png;base64,"},{"mimeType":"image/png","uri":"data:image/png;base64,"},{"mimeType":"image/png","uri":"data:image/png;base64,"},{"mimeType":"image/png","uri":"data:image/png;base64,"}],"meshes":[{"primitives":[{"mode":4,"attributes":{"POSITION":0,"NORMAL":1,"TEXCOORD_0":2},"indices":3,"material":0}]},{"primitives":[{"mode":4,"attributes":{"POSITION":4,"NORMAL":5,"TEXCOORD_0":6},"indices":7,"material":1}]},{"primitives":[{"mode":4,"attributes":{"POSITION":8,"NORMAL":9,"TEXCOORD_0":10},"indices":11,"material":2}]},{"primitives":[{"mode":4,"attributes":{"POSITION":12,"NORMAL":13,"TEXCOORD_0":14},"indices":15,"material":3}]}]}