{"asset":{"version":"2.0","generator":"Blockbench 4.10.3 glTF exporter"},"scenes":[{"nodes":[1],"name":"blockbench_export"}],"scene":0,"nodes":[{"rotation":[0,0,0.7071067811865475,0.7071067811865476],"translation":[0.628125,0.30937500000000023,0],"name":"cuboid","mesh":0},{"children":[0]}],"bufferViews":[{"buffer":0,"byteOffset":0,"byteLength":3264,"target":34962,"byteStride":12},{"buffer":0,"byteOffset":3264,"byteLength":3264,"target":34962,"byteStride":12},{"buffer":0,"byteOffset":6528,"byteLength":2176,"target":34962,"byteStride":8},{"buffer":0,"byteOffset":8704,"byteLength":792,"target":34963}],"buffers":[{"byteLength":9496,"uri":"data:application/octet-stream;base64,"}],"accessors":[{"bufferView":0,"componentType":5126,"count":272,"max":[0.22812500596046448,1.1281249523162842,0.07187499850988388],"min":[-0.7437499761581421,0.12812499701976776,-0.07187499850988388],"type":"VEC3"},{"bufferView":1,"componentType":5126,"count":272,"max":[1,1,1],"min":[-1,-1,-1],"type":"VEC3"},{"bufferView":2,"componentType":5126,"count":272,"max":[0.5247718691825867,0.4828125238418579],"min":[0.0015625000232830644,0],"type":"VEC2"},{"bufferView":3,"componentType":5123,"count":396,"max":[271],"min":[0],"type":"SCALAR"}],"materials":[{"pbrMetallicRoughness":{"metallicFactor":0,"roughnessFactor":1,"baseColorTexture":{"index":0}},"alphaMode":"MASK","alphaCutoff":0.05,"doubleSided":true}],"textures":[{"sampler":0,"source":0,"name":"texture"}],"samplers":[{"magFilter":9728,"minFilter":9728,"wrapS":33071,"wrapT":33071}],"images":[{"mimeType":"image/png","uri":"data:image/png;base64,"}],"meshes":[{"primitives":[{"mode":4,"attributes":{"POSITION":0,"NORMAL":1,"TEXCOORD_0":2},"indices":3,"material":0}]}]}